<mxfile host="app.diagrams.net" modified="2023-06-27T15:17:42.617Z" agent="Mozilla/5.0 (Windows NT 10.0; Win64; x64; rv:109.0) Gecko/20100101 Firefox/114.0" etag="wYnaBXJSpGVg7nMT3GKu" version="21.5.0" type="github">
  <diagram name="Page-1" id="8ce9d11a-91a2-4d17-14d8-a56ed91bf033">
    <mxGraphModel dx="1674" dy="782" grid="1" gridSize="10" guides="1" tooltips="1" connect="1" arrows="1" fold="1" page="1" pageScale="1" pageWidth="1100" pageHeight="850" background="none" math="0" shadow="0">
      <root>
        <mxCell id="0" />
        <mxCell id="1" parent="0" />
        <mxCell id="gXXNh5nOAtMScjM5fa4O-2" value="Physical Failure of Controller" style="rounded=0;whiteSpace=wrap;html=1;" vertex="1" parent="1">
          <mxGeometry x="160" y="310" width="120" height="60" as="geometry" />
        </mxCell>
        <mxCell id="gXXNh5nOAtMScjM5fa4O-3" value="Unsafe Control Input" style="rounded=0;whiteSpace=wrap;html=1;" vertex="1" parent="1">
          <mxGeometry x="360" y="310" width="120" height="60" as="geometry" />
        </mxCell>
        <mxCell id="gXXNh5nOAtMScjM5fa4O-4" value="Inadequate Process Model" style="rounded=0;whiteSpace=wrap;html=1;" vertex="1" parent="1">
          <mxGeometry x="560" y="310" width="120" height="60" as="geometry" />
        </mxCell>
        <mxCell id="gXXNh5nOAtMScjM5fa4O-5" value="Inadequate Control Algorithm" style="rounded=0;whiteSpace=wrap;html=1;" vertex="1" parent="1">
          <mxGeometry x="760" y="310" width="120" height="60" as="geometry" />
        </mxCell>
        <mxCell id="gXXNh5nOAtMScjM5fa4O-6" value="Each subsystem has 4 failure modes, each with differing levels of severity related to their issue status, these failure modes act as multipliers to the overall metric" style="swimlane;fontStyle=0;childLayout=stackLayout;horizontal=1;startSize=40;horizontalStack=0;resizeParent=1;resizeParentMax=0;resizeLast=0;collapsible=1;marginBottom=0;whiteSpace=wrap;html=1;" vertex="1" parent="1">
          <mxGeometry x="40" y="120" width="490" height="160" as="geometry" />
        </mxCell>
        <mxCell id="gXXNh5nOAtMScjM5fa4O-7" value="No Detection (FR 1.0)" style="text;strokeColor=none;fillColor=none;align=left;verticalAlign=middle;spacingLeft=4;spacingRight=4;overflow=hidden;points=[[0,0.5],[1,0.5]];portConstraint=eastwest;rotatable=0;whiteSpace=wrap;html=1;" vertex="1" parent="gXXNh5nOAtMScjM5fa4O-6">
          <mxGeometry y="40" width="490" height="30" as="geometry" />
        </mxCell>
        <mxCell id="gXXNh5nOAtMScjM5fa4O-8" value="Late Detection (FR 0.75)" style="text;strokeColor=none;fillColor=none;align=left;verticalAlign=middle;spacingLeft=4;spacingRight=4;overflow=hidden;points=[[0,0.5],[1,0.5]];portConstraint=eastwest;rotatable=0;whiteSpace=wrap;html=1;" vertex="1" parent="gXXNh5nOAtMScjM5fa4O-6">
          <mxGeometry y="70" width="490" height="30" as="geometry" />
        </mxCell>
        <mxCell id="gXXNh5nOAtMScjM5fa4O-9" value="Misclassification (FR 1.0-0.5)" style="text;strokeColor=none;fillColor=none;align=left;verticalAlign=middle;spacingLeft=4;spacingRight=4;overflow=hidden;points=[[0,0.5],[1,0.5]];portConstraint=eastwest;rotatable=0;whiteSpace=wrap;html=1;" vertex="1" parent="gXXNh5nOAtMScjM5fa4O-6">
          <mxGeometry y="100" width="490" height="30" as="geometry" />
        </mxCell>
        <mxCell id="gXXNh5nOAtMScjM5fa4O-12" value="Excessive Detection (FR 0.25-0.5)" style="text;strokeColor=none;fillColor=none;align=left;verticalAlign=middle;spacingLeft=4;spacingRight=4;overflow=hidden;points=[[0,0.5],[1,0.5]];portConstraint=eastwest;rotatable=0;whiteSpace=wrap;html=1;" vertex="1" parent="gXXNh5nOAtMScjM5fa4O-6">
          <mxGeometry y="130" width="490" height="30" as="geometry" />
        </mxCell>
        <mxCell id="gXXNh5nOAtMScjM5fa4O-13" value="&lt;div&gt;This is relative to the TLHA, the failure to detect an individual person on the track would have a failure rate of:&lt;/div&gt;&lt;div&gt;(1 death(1) + %chance of derailment (2000/%) )*1&lt;/div&gt;&lt;div&gt;Whereas the Misclassification of a person the track would have&lt;br&gt;&lt;/div&gt;&lt;div&gt;(1 death(1) + %chance of derailment (2000/%) )*0.5 if the system had time to react to the person&lt;br&gt;&lt;/div&gt;" style="text;html=1;strokeColor=none;fillColor=none;align=center;verticalAlign=middle;whiteSpace=wrap;rounded=0;" vertex="1" parent="1">
          <mxGeometry x="550" y="140" width="510" height="130" as="geometry" />
        </mxCell>
        <mxCell id="gXXNh5nOAtMScjM5fa4O-14" value="&lt;div&gt;The overall system (Autonomous train) acts as an agent of its controller (the detection system) which gathers information from the imaging systems (ML) the value tracking systems (Semantic Segmentation SemS) and the context gathered through Temporal Alignment (TA) as well as local navigation and the track map to create a processed image (PI) &lt;br&gt;&lt;/div&gt;&lt;div&gt;The PI is then mapped to a live map and probability estimation of a hazard is calculated using the values proposed within the TLHA.&lt;/div&gt;&lt;div&gt;The purpose of the InternalFTA (This diagram) is to showcase risk factors of internal systems in accordance with Step 5 of the SACE safe development cycle, Design Assurance of the system archetecture&lt;br&gt;&lt;/div&gt;" style="text;html=1;strokeColor=none;fillColor=none;align=center;verticalAlign=middle;whiteSpace=wrap;rounded=0;" vertex="1" parent="1">
          <mxGeometry x="40" width="1000" height="80" as="geometry" />
        </mxCell>
      </root>
    </mxGraphModel>
  </diagram>
</mxfile>
